<svg xmlns="http://www.w3.org/2000/svg" viewBox="0 0 48 48" width="48" height="48" fill="none" stroke="#C97D2A" stroke-width="2" stroke-linecap="round" stroke-linejoin="round">
  
  
  <circle cx="24" cy="14" r="8"></circle>
  <text x="24" y="18" text-anchor="middle" font-family="system-ui" font-size="10" font-weight="700" fill="#C97D2A" stroke="none">R$</text>
  
  <path d="M10 34 Q10 28 14 28 L20 28"></path>
  <path d="M14 28 L14 24 Q14 22 16 22 Q18 22 18 24 L18 28"></path>
  <path d="M18 26 L18 22 Q18 20 20 20 Q22 20 22 22 L22 28"></path>
  <path d="M22 26 L22 22 Q22 20 24 20 Q26 20 26 22 L26 28"></path>
  <path d="M26 26 L26 24 Q26 22 28 22 Q30 22 30 25 L30 30 Q30 36 24 38 L14 38 Q10 38 10 34"></path>
</svg>