<svg xmlns="http://www.w3.org/2000/svg" viewBox="0 0 48 48" width="48" height="48" fill="none">
  
  
  <path d="M22 44 L22 30 Q21 26 20 24 Q24 22 28 24 Q27 26 26 30 L26 44 Z" fill="#A05E1A"></path>
  
  <path d="M20 44 Q16 44 14 42" stroke="#A05E1A" stroke-width="2" fill="none" stroke-linecap="round"></path>
  <path d="M26 44 Q30 44 32 42" stroke="#A05E1A" stroke-width="2" fill="none" stroke-linecap="round"></path>
  
  <path d="M8 26 Q6 18 12 14 Q16 8 24 8 Q32 8 36 14 Q42 18 40 26 Q38 34 30 35 Q26 38 22 36 Q14 36 8 26 Z" fill="#3D8B5A"></path>
  
  <path d="M14 16 Q20 10 28 12 Q34 14 36 20 Q30 14 22 14 Q16 14 14 16 Z" fill="#3D8B5A" opacity=".6" stroke="rgba(255,255,255,0.2)" stroke-width="0.5"></path>
  
  <ellipse cx="33" cy="30" rx="5" ry="7" fill="#E05A3A" transform="rotate(-15 33 30)"></ellipse>
  
  <path d="M36 25 Q40 23 40 26 Q40 28 37 29" stroke="#C97D2A" stroke-width="2" fill="none" stroke-linecap="round"></path>
</svg>