<svg xmlns="http://www.w3.org/2000/svg" viewBox="0 0 48 48" width="48" height="48" fill="none" stroke="#1A1A1A" stroke-width="2" stroke-linecap="round" stroke-linejoin="round">
  
  <path d="M8 10 Q8 8 12 8 L24 10 L36 8 Q40 8 40 10 L40 38 Q40 40 36 39 L24 37 L12 39 Q8 40 8 38 Z"></path>
  <line x1="24" y1="10" x2="24" y2="37"></line>
  <path d="M12 14 Q18 13 24 14" stroke-width="1.3"></path>
  <path d="M12 19 Q18 18 24 19" stroke-width="1.3"></path>
  <path d="M12 24 Q18 23 24 24" stroke-width="1.3"></path>
  <path d="M24 14 Q30 13 36 14" stroke-width="1.3"></path>
  <path d="M24 19 Q30 18 36 19" stroke-width="1.3"></path>
</svg>