<svg xmlns="http://www.w3.org/2000/svg" viewBox="0 0 48 48" width="48" height="48" fill="none">
  
  
  <path d="M0 38 Q8 22 20 26 Q28 29 36 22 Q42 18 48 24 L48 48 L0 48 Z" fill="#E8A04E" opacity=".55"></path>
  
  <path d="M0 42 Q10 30 22 34 Q30 37 38 30 Q43 26 48 30 L48 48 L0 48 Z" fill="#C97D2A" opacity=".75"></path>
  
  <path d="M0 48 Q6 36 16 40 Q24 43 32 38 Q40 34 48 40 L48 48 Z" fill="#A05E1A"></path>
  
  <path d="M8 30 Q14 28 18 30" stroke="#FBF0E3" stroke-width="0.8" fill="none" stroke-linecap="round" opacity=".6"></path>
  <path d="M28 24 Q34 22 38 24" stroke="#FBF0E3" stroke-width="0.8" fill="none" stroke-linecap="round" opacity=".5"></path>
  
  <line x1="42" y1="36" x2="42" y2="28" stroke="#3D8B5A" stroke-width="1.8" stroke-linecap="round"></line>
  <line x1="39" y1="32" x2="42" y2="30" stroke="#3D8B5A" stroke-width="1.5" stroke-linecap="round"></line>
  <line x1="45" y1="33" x2="42" y2="31" stroke="#3D8B5A" stroke-width="1.5" stroke-linecap="round"></line>
</svg>