<svg xmlns="http://www.w3.org/2000/svg" viewBox="0 0 48 48" width="48" height="48" fill="none">
  
  
  <path d="M4 30 Q8 20 16 22 Q22 24 24 18 Q26 12 32 14 Q38 16 40 22 Q42 26 44 24" stroke="#0D7C7C" stroke-width="2.5" fill="none" stroke-linecap="round"></path>
  
  <path d="M4 30 Q8 20 16 22 Q22 24 24 18 Q26 12 32 14 Q38 16 40 22 Q42 26 44 24 L44 44 L4 44 Z" fill="#0D7C7C" opacity=".18"></path>
  
  <path d="M28 16 Q30 12 34 14" stroke="#1AA6A6" stroke-width="1.5" fill="none" stroke-linecap="round"></path>
  
  <path d="M4 34 Q12 31 20 34 T36 34 T48 32" stroke="#87CEEB" stroke-width="1.4" fill="none" stroke-linecap="round" opacity=".7"></path>
  
  <circle cx="38" cy="20" r="1.5" fill="#1AA6A6" opacity=".5"></circle>
  <circle cx="42" cy="18" r="1" fill="#1AA6A6" opacity=".4"></circle>
  <circle cx="40" cy="16" r="0.8" fill="#87CEEB" opacity=".5"></circle>
</svg>