<svg xmlns="http://www.w3.org/2000/svg" viewBox="0 0 48 48" width="48" height="48" fill="none">
  
  
  <circle cx="24" cy="24" r="18" fill="#E8A04E" opacity=".18"></circle>
  
  <g stroke="#C97D2A" stroke-width="2" stroke-linecap="round">
    <line x1="24" y1="4" x2="24" y2="10"></line>
    <line x1="24" y1="38" x2="24" y2="44"></line>
    <line x1="4" y1="24" x2="10" y2="24"></line>
    <line x1="38" y1="24" x2="44" y2="24"></line>
    <line x1="8.7" y1="8.7" x2="13" y2="13"></line>
    <line x1="35" y1="35" x2="39.3" y2="39.3"></line>
    <line x1="39.3" y1="8.7" x2="35" y2="13"></line>
    <line x1="13" y1="35" x2="8.7" y2="39.3"></line>
  </g>
  
  <g stroke="#E8A04E" stroke-width="1.2" stroke-linecap="round" opacity=".7">
    <line x1="15" y1="5.8" x2="17" y2="10"></line>
    <line x1="33" y1="5.8" x2="31" y2="10"></line>
    <line x1="5.8" y1="15" x2="10" y2="17"></line>
    <line x1="5.8" y1="33" x2="10" y2="31"></line>
    <line x1="42.2" y1="15" x2="38" y2="17"></line>
    <line x1="42.2" y1="33" x2="38" y2="31"></line>
    <line x1="15" y1="42.2" x2="17" y2="38"></line>
    <line x1="33" y1="42.2" x2="31" y2="38"></line>
  </g>
  
  <circle cx="24" cy="24" r="10" fill="#C97D2A"></circle>
  
  <circle cx="21" cy="21" r="4" fill="#E8A04E" opacity=".6"></circle>
</svg>